<svg xmlns="http://www.w3.org/2000/svg" viewBox="0 0 60 60"><defs><style>.cls-1{fill:#ffc107;}</style></defs><g id="Layer_2" data-name="Layer 2"><g id="Layer_1-2" data-name="Layer 1"><circle cx="29.41" cy="30.59" r="18.38"/><polygon points="25.73 8.53 33.09 8.53 29.41 1.18 25.73 8.53"/><polygon points="25.73 52.65 33.09 52.65 29.41 60 25.73 52.65"/><polygon points="51.47 26.91 51.47 34.27 58.82 30.59 51.47 26.91"/><polygon points="7.35 26.91 7.35 34.27 0 30.59 7.35 26.91"/><polygon points="9.95 16.33 15.15 11.13 7.35 8.53 9.95 16.33"/><polygon points="43.67 11.13 48.87 16.33 51.47 8.53 43.67 11.13"/><polygon points="43.67 50.05 48.87 44.85 51.47 52.65 43.67 50.05"/><polygon points="9.95 44.85 15.15 50.05 7.35 52.65 9.95 44.85"/><circle class="cls-1" cx="30.59" cy="29.41" r="18.38"/><polygon class="cls-1" points="26.91 7.35 34.27 7.35 30.59 0 26.91 7.35"/><polygon class="cls-1" points="26.91 51.47 34.27 51.47 30.59 58.82 26.91 51.47"/><polygon class="cls-1" points="52.65 25.73 52.65 33.09 60 29.41 52.65 25.73"/><polygon class="cls-1" points="8.53 25.73 8.53 33.09 1.18 29.41 8.53 25.73"/><polygon class="cls-1" points="11.13 15.15 16.33 9.95 8.53 7.35 11.13 15.15"/><polygon class="cls-1" points="44.85 9.95 50.05 15.15 52.65 7.35 44.85 9.95"/><polygon class="cls-1" points="44.85 48.87 50.05 43.67 52.65 51.47 44.85 48.87"/><polygon class="cls-1" points="11.13 43.67 16.33 48.87 8.53 51.47 11.13 43.67"/></g></g></svg>