<?xml version="1.0" encoding="UTF-8"?>
<svg xmlns="http://www.w3.org/2000/svg" style="display:none">
  <symbol id="icon-2" viewBox="0 0 60 60">
    <circle cx="29.41" cy="30.59" r="18.38"/><polygon points="25.73 8.53 33.09 8.53 29.41 1.18 25.73 8.53"/><polygon points="25.73 52.65 33.09 52.65 29.41 60 25.73 52.65"/><polygon points="51.47 26.91 51.47 34.27 58.82 30.59 51.47 26.91"/><polygon points="7.35 26.91 7.35 34.27 0 30.59 7.35 26.91"/><polygon points="9.95 16.33 15.15 11.13 7.35 8.53 9.95 16.33"/><polygon points="43.67 11.13 48.87 16.33 51.47 8.53 43.67 11.13"/><polygon points="43.67 50.05 48.87 44.85 51.47 52.65 43.67 50.05"/><polygon points="9.95 44.85 15.15 50.05 7.35 52.65 9.95 44.85"/><circle style="fill:#ffc107;" cx="30.59" cy="29.41" r="18.38"/><polygon style="fill:#ffc107;" points="26.91 7.35 34.27 7.35 30.59 0 26.91 7.35"/><polygon style="fill:#ffc107;" points="26.91 51.47 34.27 51.47 30.59 58.82 26.91 51.47"/><polygon style="fill:#ffc107;" points="52.65 25.73 52.65 33.09 60 29.41 52.65 25.73"/><polygon style="fill:#ffc107;" points="8.53 25.73 8.53 33.09 1.18 29.41 8.53 25.73"/><polygon style="fill:#ffc107;" points="11.13 15.15 16.33 9.95 8.53 7.35 11.13 15.15"/><polygon style="fill:#ffc107;" points="44.85 9.95 50.05 15.15 52.65 7.35 44.85 9.95"/><polygon style="fill:#ffc107;" points="44.85 48.87 50.05 43.67 52.65 51.47 44.85 48.87"/><polygon style="fill:#ffc107;" points="11.13 43.67 16.33 48.87 8.53 51.47 11.13 43.67"/>
  </symbol>

  <symbol id="icon-3" viewBox="0 0 61.09 60">
    <circle cx="30.5" cy="30.59" r="18.38"/><polygon points="26.82 8.53 34.18 8.53 30.5 1.18 26.82 8.53"/><polygon points="26.82 52.65 34.18 52.65 30.5 60 26.82 52.65"/><polygon points="52.56 26.91 52.56 34.27 59.91 30.59 52.56 26.91"/><polygon points="8.44 26.91 8.44 34.27 1.09 30.59 8.44 26.91"/><polygon points="11.04 16.33 16.24 11.13 8.44 8.53 11.04 16.33"/><polygon points="44.76 11.13 49.96 16.33 52.56 8.53 44.76 11.13"/><polygon points="44.76 50.05 49.96 44.85 52.56 52.65 44.76 50.05"/><polygon points="11.04 44.85 16.24 50.05 8.44 52.65 11.04 44.85"/><circle style="fill:#ffc107;" cx="31.68" cy="29.41" r="18.38"/><polygon style="fill:#ffc107;" points="28 7.35 35.35 7.35 31.68 0 28 7.35"/><polygon style="fill:#ffc107;" points="28 51.47 35.35 51.47 31.68 58.82 28 51.47"/><polygon style="fill:#ffc107;" points="53.73 25.73 53.73 33.09 61.09 29.41 53.73 25.73"/><polygon style="fill:#ffc107;" points="9.62 25.73 9.62 33.09 2.26 29.41 9.62 25.73"/><polygon style="fill:#ffc107;" points="12.22 15.15 17.42 9.95 9.62 7.35 12.22 15.15"/><polygon style="fill:#ffc107;" points="45.94 9.95 51.13 15.15 53.73 7.35 45.94 9.95"/><polygon style="fill:#ffc107;" points="45.94 48.87 51.13 43.67 53.73 51.47 45.94 48.87"/><polygon style="fill:#ffc107;" points="12.22 43.67 17.42 48.87 9.62 51.47 12.22 43.67"/><path style="fill:#b3b3b3;" d="M29.65,41.2a7,7,0,0,0-4.38.86,9.9,9.9,0,0,0-19.33,3v.1A4.95,4.95,0,1,0,5,55a4.58,4.58,0,0,0,.53,0,3.44,3.44,0,0,0,.46,0H27.72a3.4,3.4,0,0,0,.45,0,4.89,4.89,0,0,0,.54,0,6.93,6.93,0,0,0,.94-13.8Z"/><path style="fill:#fff;" d="M30.09,40.76a6.83,6.83,0,0,0-4.38.86,9.9,9.9,0,0,0-19.32,3v.1A5,5,0,0,0,.47,49.07,5,5,0,0,0,5.4,54.55l.52,0,.47,0H28.17l.45,0,.54,0a6.93,6.93,0,0,0,.93-13.79Z"/>
  </symbol>

  <symbol id="icon-4" viewBox="0 0 80 60">
    <circle cx="49.41" cy="30.59" r="18.38"/><polygon points="45.73 8.53 53.09 8.53 49.41 1.18 45.73 8.53"/><polygon points="45.73 52.65 53.09 52.65 49.41 60 45.73 52.65"/><polygon points="71.47 26.91 71.47 34.27 78.82 30.59 71.47 26.91"/><polygon points="27.35 26.91 27.35 34.27 20 30.59 27.35 26.91"/><polygon points="29.95 16.33 35.15 11.13 27.35 8.53 29.95 16.33"/><polygon points="63.67 11.13 68.87 16.33 71.47 8.53 63.67 11.13"/><polygon points="63.67 50.05 68.87 44.85 71.47 52.65 63.67 50.05"/><polygon points="29.95 44.85 35.15 50.05 27.35 52.65 29.95 44.85"/><circle style="fill:#ffc107;" cx="50.59" cy="29.41" r="18.38"/><polygon style="fill:#ffc107;" points="46.91 7.35 54.27 7.35 50.59 0 46.91 7.35"/><polygon style="fill:#ffc107;" points="46.91 51.47 54.27 51.47 50.59 58.82 46.91 51.47"/><polygon style="fill:#ffc107;" points="72.65 25.73 72.65 33.09 80 29.41 72.65 25.73"/><polygon style="fill:#ffc107;" points="28.53 25.73 28.53 33.09 21.18 29.41 28.53 25.73"/><polygon style="fill:#ffc107;" points="31.13 15.15 36.33 9.95 28.53 7.35 31.13 15.15"/><polygon style="fill:#ffc107;" points="64.85 9.95 70.05 15.15 72.65 7.35 64.85 9.95"/><polygon style="fill:#ffc107;" points="64.85 48.87 70.05 43.67 72.65 51.47 64.85 48.87"/><polygon style="fill:#ffc107;" points="31.13 43.67 36.33 48.87 28.53 51.47 31.13 43.67"/><path style="fill:#b3b3b3;" d="M53.4,35.15a12.37,12.37,0,0,0-7.89,1.55A17.83,17.83,0,0,0,10.7,42.17v.18a8.84,8.84,0,0,0-2.87-.12A8.92,8.92,0,0,0,8.92,60c.32,0,.64,0,.95,0a7.55,7.55,0,0,0,.83,0H49.93a7,7,0,0,0,.81,0c.32,0,.65,0,1,0A12.48,12.48,0,0,0,53.4,35.15Z"/><path style="fill:#fff;" d="M54.2,34.34a12.45,12.45,0,0,0-7.89,1.56A17.83,17.83,0,0,0,11.5,41.36c0,.07,0,.12,0,.18a9.2,9.2,0,0,0-2.88-.11A8.92,8.92,0,0,0,9.72,59.2c.32,0,.64,0,.95-.05a7.55,7.55,0,0,0,.83.05H50.73a7,7,0,0,0,.81-.05c.33,0,.65.05,1,.05A12.49,12.49,0,0,0,54.2,34.34Z"/>
  </symbol>

  <symbol id="icon-5" viewBox="0 0 80 65">
    <circle cx="49.41" cy="30.59" r="18.38"/><polygon points="45.73 8.53 53.09 8.53 49.41 1.18 45.73 8.53"/><polygon points="45.73 52.65 53.09 52.65 49.41 60 45.73 52.65"/><polygon points="71.47 26.91 71.47 34.27 78.82 30.59 71.47 26.91"/><polygon points="27.35 26.91 27.35 34.27 20 30.59 27.35 26.91"/><polygon points="29.95 16.33 35.15 11.13 27.35 8.53 29.95 16.33"/><polygon points="63.67 11.13 68.87 16.33 71.47 8.53 63.67 11.13"/><polygon points="63.67 50.05 68.87 44.85 71.47 52.65 63.67 50.05"/><polygon points="29.95 44.85 35.15 50.05 27.35 52.65 29.95 44.85"/><circle style="fill:#ffc107;" cx="50.59" cy="29.41" r="18.38"/><polygon style="fill:#ffc107;" points="46.91 7.35 54.27 7.35 50.59 0 46.91 7.35"/><polygon style="fill:#ffc107;" points="46.91 51.47 54.27 51.47 50.59 58.82 46.91 51.47"/><polygon style="fill:#ffc107;" points="72.65 25.73 72.65 33.09 80 29.41 72.65 25.73"/><polygon style="fill:#ffc107;" points="28.53 25.73 28.53 33.09 21.18 29.41 28.53 25.73"/><polygon style="fill:#ffc107;" points="31.13 15.15 36.33 9.95 28.53 7.35 31.13 15.15"/><polygon style="fill:#ffc107;" points="64.85 9.95 70.05 15.15 72.65 7.35 64.85 9.95"/><polygon style="fill:#ffc107;" points="64.85 48.87 70.05 43.67 72.65 51.47 64.85 48.87"/><polygon style="fill:#ffc107;" points="31.13 43.67 36.33 48.87 28.53 51.47 31.13 43.67"/><path style="fill:#b3b3b3;" d="M53.4,35.15a12.37,12.37,0,0,0-7.89,1.55A17.83,17.83,0,0,0,10.7,42.17v.18a8.84,8.84,0,0,0-2.87-.12A8.92,8.92,0,0,0,8.92,60c.32,0,.64,0,.95,0a7.55,7.55,0,0,0,.83,0H49.93a7,7,0,0,0,.81,0c.32,0,.65,0,1,0A12.48,12.48,0,0,0,53.4,35.15Z"/><path style="fill:#fff;" d="M54.2,34.34a12.45,12.45,0,0,0-7.89,1.56A17.83,17.83,0,0,0,11.5,41.36c0,.07,0,.12,0,.18a9.2,9.2,0,0,0-2.88-.11A8.92,8.92,0,0,0,9.72,59.2c.32,0,.64,0,.95-.05a7.55,7.55,0,0,0,.83.05H50.73a7,7,0,0,0,.81-.05c.33,0,.65.05,1,.05A12.49,12.49,0,0,0,54.2,34.34Z"/><path style="fill:#b3b3b3;" d="M37.8,48.31a8.31,8.31,0,0,1,5.29,1A12,12,0,0,1,66.47,53v.12a6.2,6.2,0,0,1,1.93-.07A6,6,0,0,1,67.67,65,4.58,4.58,0,0,1,67,65a3.43,3.43,0,0,1-.56,0H40.12a4.89,4.89,0,0,1-.54,0c-.22,0-.44,0-.66,0A8.38,8.38,0,0,1,37.8,48.31Z"/><path style="fill:#e6e6e6;" d="M37.26,47.77a8.3,8.3,0,0,1,5.29,1,12,12,0,0,1,23.39,3.67s0,.08,0,.12a6.21,6.21,0,0,1,1.93-.07,6,6,0,0,1-.73,11.93c-.21,0-.43,0-.64,0a5.07,5.07,0,0,1-.55,0H39.58a4.89,4.89,0,0,1-.54,0c-.22,0-.43,0-.66,0a8.38,8.38,0,0,1-1.12-16.69Z"/>
  </symbol>

  <symbol id="icon-6" viewBox="0 0 80 65">
    <circle cx="49.41" cy="30.59" r="18.38"/><polygon points="45.73 8.53 53.09 8.53 49.41 1.18 45.73 8.53"/><polygon points="45.73 52.65 53.09 52.65 49.41 60 45.73 52.65"/><polygon points="71.47 26.91 71.47 34.27 78.82 30.59 71.47 26.91"/><polygon points="27.35 26.91 27.35 34.27 20 30.59 27.35 26.91"/><polygon points="29.95 16.33 35.15 11.13 27.35 8.53 29.95 16.33"/><polygon points="63.67 11.13 68.87 16.33 71.47 8.53 63.67 11.13"/><polygon points="63.67 50.05 68.87 44.85 71.47 52.65 63.67 50.05"/><polygon points="29.95 44.85 35.15 50.05 27.35 52.65 29.95 44.85"/><circle style="fill:#ffc107;" cx="50.59" cy="29.41" r="18.38"/><polygon style="fill:#ffc107;" points="46.91 7.35 54.27 7.35 50.59 0 46.91 7.35"/><polygon style="fill:#ffc107;" points="46.91 51.47 54.27 51.47 50.59 58.82 46.91 51.47"/><polygon style="fill:#ffc107;" points="72.65 25.73 72.65 33.09 80 29.41 72.65 25.73"/><polygon style="fill:#ffc107;" points="28.53 25.73 28.53 33.09 21.18 29.41 28.53 25.73"/><polygon style="fill:#ffc107;" points="31.13 15.15 36.33 9.95 28.53 7.35 31.13 15.15"/><polygon style="fill:#ffc107;" points="64.85 9.95 70.05 15.15 72.65 7.35 64.85 9.95"/><polygon style="fill:#ffc107;" points="64.85 48.87 70.05 43.67 72.65 51.47 64.85 48.87"/><polygon style="fill:#ffc107;" points="31.13 43.67 36.33 48.87 28.53 51.47 31.13 43.67"/><path style="fill:#b3b3b3;" d="M11.14,26.15a11.91,11.91,0,0,1,7.57,1.49,17.11,17.11,0,0,1,33.4,5.25v.17A8.46,8.46,0,0,1,54.87,33a8.56,8.56,0,0,1-1,17c-.31,0-.62,0-.92,0a6.87,6.87,0,0,1-.8,0H14.46a6.81,6.81,0,0,1-.78,0c-.3,0-.61,0-.93,0a12,12,0,0,1-1.61-23.85Z"/><path style="fill:#e6e6e6;" d="M10.37,25.38a11.91,11.91,0,0,1,7.57,1.49,17.11,17.11,0,0,1,33.4,5.24v.18a8.46,8.46,0,0,1,2.76-.11,8.56,8.56,0,0,1-1,17c-.31,0-.62,0-.92,0a7,7,0,0,1-.8,0H13.69a6.81,6.81,0,0,1-.78,0c-.3,0-.61,0-.93,0a12,12,0,0,1-1.61-23.85Z"/><path style="fill:#b3b3b3;" d="M53.4,35.15a12.37,12.37,0,0,0-7.89,1.55A17.83,17.83,0,0,0,10.7,42.17v.18a8.84,8.84,0,0,0-2.87-.12A8.92,8.92,0,0,0,8.92,60c.32,0,.64,0,.95,0a7.55,7.55,0,0,0,.83,0H49.93a7,7,0,0,0,.81,0c.32,0,.65,0,1,0A12.48,12.48,0,0,0,53.4,35.15Z"/><path style="fill:#fff;" d="M54.2,34.34a12.45,12.45,0,0,0-7.89,1.56A17.83,17.83,0,0,0,11.5,41.36c0,.07,0,.12,0,.18a9.2,9.2,0,0,0-2.88-.11A8.92,8.92,0,0,0,9.72,59.2c.32,0,.64,0,.95-.05a7.55,7.55,0,0,0,.83.05H50.73a7,7,0,0,0,.81-.05c.33,0,.65.05,1,.05A12.49,12.49,0,0,0,54.2,34.34Z"/><path style="fill:#b3b3b3;" d="M37.8,48.31a8.31,8.31,0,0,1,5.29,1A12,12,0,0,1,66.47,53v.12a6.2,6.2,0,0,1,1.93-.07A6,6,0,0,1,67.67,65,4.58,4.58,0,0,1,67,65a3.43,3.43,0,0,1-.56,0H40.12a4.89,4.89,0,0,1-.54,0c-.22,0-.44,0-.66,0A8.38,8.38,0,0,1,37.8,48.31Z"/><path style="fill:#e6e6e6;" d="M37.26,47.77a8.3,8.3,0,0,1,5.29,1,12,12,0,0,1,23.39,3.67s0,.08,0,.12a6.21,6.21,0,0,1,1.93-.07,6,6,0,0,1-.73,11.93c-.21,0-.43,0-.64,0a5.07,5.07,0,0,1-.55,0H39.58a4.89,4.89,0,0,1-.54,0c-.22,0-.43,0-.66,0a8.38,8.38,0,0,1-1.12-16.69Z"/>
  </symbol>

  <symbol id="icon-7" viewBox="0 0 81 45.44">
    <path style="fill:#b3b3b3;" d="M66.54,14.47a15.42,15.42,0,0,0-9.83,1.94,22.23,22.23,0,0,0-43.38,6.81c0,.08,0,.15,0,.23A11.09,11.09,0,0,0,.06,33.14a11.11,11.11,0,0,0,11,12.3,11.71,11.71,0,0,0,1.19-.06,8.77,8.77,0,0,0,1,.06H62.22a8.43,8.43,0,0,0,1-.06c.4,0,.8.06,1.21.06a15.56,15.56,0,0,0,2.1-31Z"/><path style="fill:#fff;" d="M67.54,13.47a15.42,15.42,0,0,0-9.83,1.94,22.23,22.23,0,0,0-43.38,6.81c0,.08,0,.15,0,.23A11.09,11.09,0,0,0,1.06,32.14a11.11,11.11,0,0,0,11,12.3,11.71,11.71,0,0,0,1.19-.06,8.77,8.77,0,0,0,1,.06H63.22a8.43,8.43,0,0,0,1-.06c.4,0,.8.06,1.21.06a15.56,15.56,0,0,0,2.1-31Z"/>
  </symbol>

  <symbol id="icon-8" viewBox="0 0 80 54.3">
    <path style="fill:#b3b3b3;" d="M12.1,12.11a13,13,0,0,1,8.22,1.61,18.59,18.59,0,0,1,36.28,5.7,1.15,1.15,0,0,1,0,.19,9.67,9.67,0,0,1,3-.12A9.29,9.29,0,0,1,58.46,38c-.34,0-.67,0-1,0a8.46,8.46,0,0,1-.87,0H15.71a7.92,7.92,0,0,1-.85,0c-.33,0-.67,0-1,0a13,13,0,0,1-1.75-25.9Z"/><path style="fill:#e6e6e6;" d="M11.26,11.27a12.9,12.9,0,0,1,8.22,1.62,18.59,18.59,0,0,1,36.28,5.7v.19a9.07,9.07,0,0,1,3-.12,9.3,9.3,0,0,1-1.14,18.52,8.22,8.22,0,0,1-1-.06,8.29,8.29,0,0,1-.87.06H14.87a5.73,5.73,0,0,1-.84-.06c-.34,0-.68.06-1,.06a13,13,0,0,1-1.75-25.91Z"/><path style="fill:#b3b3b3;" d="M58,21.88a13.51,13.51,0,0,0-8.57,1.68,19.37,19.37,0,0,0-37.8,6,1.21,1.21,0,0,0,0,.19,9.89,9.89,0,0,0-3.13-.12A9.68,9.68,0,0,0,9.68,48.87c.35,0,.7,0,1,0a8.72,8.72,0,0,0,.9,0H54.23a8.49,8.49,0,0,0,.88,0c.35,0,.7,0,1.06,0a13.56,13.56,0,0,0,1.82-27Z"/><path style="fill:#fff;" d="M58.86,21a13.51,13.51,0,0,0-8.57,1.68,19.37,19.37,0,0,0-37.8,5.94c0,.07,0,.13,0,.2a10.18,10.18,0,0,0-3.13-.13A9.69,9.69,0,0,0,10.56,48a8.89,8.89,0,0,0,1-.06,6.8,6.8,0,0,0,.9.06H55.1A8.49,8.49,0,0,0,56,48c.35,0,.7,0,1.06,0a13.56,13.56,0,0,0,1.82-27Z"/><path style="fill:#b3b3b3;" d="M41.05,36.17A9.08,9.08,0,0,1,46.8,37.3a13,13,0,0,1,25.39,4v.13a6.67,6.67,0,0,1,2.1-.08,6.5,6.5,0,0,1-.79,13,5.37,5.37,0,0,1-.7,0,4.08,4.08,0,0,1-.61,0H43.57a5.83,5.83,0,0,1-.59,0c-.23,0-.47,0-.71,0a9.11,9.11,0,0,1-1.22-18.13Z"/><path style="fill:#e6e6e6;" d="M40.46,35.59a9,9,0,0,1,5.76,1.13,13,13,0,0,1,25.39,4v.13a6.32,6.32,0,0,1,2.09-.08,6.5,6.5,0,0,1-.79,13c-.23,0-.47,0-.7,0a5.85,5.85,0,0,1-.6,0H43a5.65,5.65,0,0,1-.59,0c-.24,0-.47,0-.71,0a9.11,9.11,0,0,1-1.23-18.13Z"/>
  </symbol>

  <symbol id="icon-9" viewBox="0 0 81 64.39">
    <path style="fill:#b3b3b3;" d="M66.54,14.47a15.42,15.42,0,0,0-9.83,1.94,22.23,22.23,0,0,0-43.38,6.81c0,.08,0,.15,0,.23A11.09,11.09,0,0,0,.06,33.14a11.11,11.11,0,0,0,11,12.3,11.71,11.71,0,0,0,1.19-.06,8.77,8.77,0,0,0,1,.06H62.22a8.43,8.43,0,0,0,1-.06c.4,0,.8.06,1.21.06a15.56,15.56,0,0,0,2.1-31Z"/><path style="fill:#fff;" d="M67.54,13.47a15.42,15.42,0,0,0-9.83,1.94,22.23,22.23,0,0,0-43.38,6.81c0,.08,0,.15,0,.23A11.09,11.09,0,0,0,1.06,32.14a11.11,11.11,0,0,0,11,12.3,11.71,11.71,0,0,0,1.19-.06,8.77,8.77,0,0,0,1,.06H63.22a8.43,8.43,0,0,0,1-.06c.4,0,.8.06,1.21.06a15.56,15.56,0,0,0,2.1-31Z"/><rect x="14.5" y="49.39" width="50" height="5" rx="2.5"/><rect style="fill:#e6e6e6;" x="15.5" y="48.39" width="50" height="5" rx="2.5"/><rect x="24.5" y="59.39" width="28.94" height="5" rx="2.5"/><rect style="fill:#e6e6e6;" x="25.5" y="58.39" width="28.94" height="5" rx="2.5"/>
  </symbol>

  <symbol id="icon-10" viewBox="0 0 81 59.71">
    <path style="fill:#b3b3b3;" d="M66.54,14.47a15.42,15.42,0,0,0-9.83,1.94,22.23,22.23,0,0,0-43.38,6.81c0,.08,0,.15,0,.23A11.09,11.09,0,0,0,.06,33.14a11.11,11.11,0,0,0,11,12.3,11.71,11.71,0,0,0,1.19-.06,8.77,8.77,0,0,0,1,.06H62.22a8.43,8.43,0,0,0,1-.06c.4,0,.8.06,1.21.06a15.56,15.56,0,0,0,2.1-31Z"/><path style="fill:#fff;" d="M67.54,13.47a15.42,15.42,0,0,0-9.83,1.94,22.23,22.23,0,0,0-43.38,6.81c0,.08,0,.15,0,.23A11.09,11.09,0,0,0,1.06,32.14a11.11,11.11,0,0,0,11,12.3,11.71,11.71,0,0,0,1.19-.06,8.77,8.77,0,0,0,1,.06H63.22a8.43,8.43,0,0,0,1-.06c.4,0,.8.06,1.21.06a15.56,15.56,0,0,0,2.1-31Z"/><path d="M27.09,49,24,53.62a3.7,3.7,0,0,0,.46,4.67h0a3.7,3.7,0,0,0,5.23,0h0a3.7,3.7,0,0,0,.46-4.67Z"/><path style="fill:#12c2ff;" d="M27.43,48.66l-3.07,4.62A3.7,3.7,0,0,0,24.82,58h0a3.69,3.69,0,0,0,5.23,0h0a3.7,3.7,0,0,0,.46-4.67Z"/><path d="M38.48,49.34,35.4,54a3.71,3.71,0,0,0,.47,4.67h0a3.71,3.71,0,0,0,5.23,0h0A3.7,3.7,0,0,0,41.56,54Z"/><path style="fill:#12c2ff;" d="M38.82,49l-3.08,4.62a3.71,3.71,0,0,0,.47,4.67h0a3.69,3.69,0,0,0,5.23,0h0a3.7,3.7,0,0,0,.46-4.67Z"/><path d="M49.87,49l-3.08,4.62a3.71,3.71,0,0,0,.47,4.67h0a3.69,3.69,0,0,0,5.23,0h0A3.7,3.7,0,0,0,53,53.62Z"/><path style="fill:#12c2ff;" d="M50.21,48.66l-3.08,4.62A3.71,3.71,0,0,0,47.6,58h0a3.69,3.69,0,0,0,5.23,0h0a3.7,3.7,0,0,0,.46-4.67Z"/>
  </symbol>

  <symbol id="icon-11" viewBox="0 0 81 62.81">
    <rect x="27.56" y="48.47" width="4.47" height="14.82" rx="2.24" transform="translate(26.41 -7.36) rotate(25)"/><rect x="37.56" y="48.47" width="4.47" height="14.82" rx="2.24" transform="translate(27.35 -11.58) rotate(25)"/><rect x="47.56" y="48.47" width="4.47" height="14.82" rx="2.24" transform="translate(28.28 -15.81) rotate(25)"/><rect style="fill:#12c2ff;" x="28.56" y="47.47" width="4.47" height="14.82" rx="2.24" transform="translate(26.08 -7.87) rotate(25)"/><rect style="fill:#12c2ff;" x="38.56" y="47.47" width="4.47" height="14.82" rx="2.24" transform="translate(27.02 -12.1) rotate(25)"/><rect style="fill:#12c2ff;" x="48.56" y="47.47" width="4.47" height="14.82" rx="2.24" transform="translate(27.96 -16.32) rotate(25)"/><path style="fill:#b3b3b3;" d="M66.54,14.47a15.42,15.42,0,0,0-9.83,1.94,22.23,22.23,0,0,0-43.38,6.81c0,.08,0,.15,0,.23A11.09,11.09,0,0,0,.06,33.14a11.11,11.11,0,0,0,11,12.3,11.71,11.71,0,0,0,1.19-.06,8.77,8.77,0,0,0,1,.06H62.22a8.43,8.43,0,0,0,1-.06c.4,0,.8.06,1.21.06a15.56,15.56,0,0,0,2.1-31Z"/><path style="fill:#fff;" d="M67.54,13.47a15.42,15.42,0,0,0-9.83,1.94,22.23,22.23,0,0,0-43.38,6.81c0,.08,0,.15,0,.23A11.09,11.09,0,0,0,1.06,32.14a11.11,11.11,0,0,0,11,12.3,11.71,11.71,0,0,0,1.19-.06,8.77,8.77,0,0,0,1,.06H63.22a8.43,8.43,0,0,0,1-.06c.4,0,.8.06,1.21.06a15.56,15.56,0,0,0,2.1-31Z"/>
  </symbol>

  <symbol id="icon-12" viewBox="0 0 81 59.88">
    <path style="fill:#b3b3b3;" d="M66.54,14.47a15.42,15.42,0,0,0-9.83,1.94,22.23,22.23,0,0,0-43.38,6.81c0,.08,0,.15,0,.23A11.09,11.09,0,0,0,.06,33.14a11.11,11.11,0,0,0,11,12.3,11.71,11.71,0,0,0,1.19-.06,8.77,8.77,0,0,0,1,.06H62.22a8.43,8.43,0,0,0,1-.06c.4,0,.8.06,1.21.06a15.56,15.56,0,0,0,2.1-31Z"/><path style="fill:#fff;" d="M67.54,13.47a15.42,15.42,0,0,0-9.83,1.94,22.23,22.23,0,0,0-43.38,6.81c0,.08,0,.15,0,.23A11.09,11.09,0,0,0,1.06,32.14a11.11,11.11,0,0,0,11,12.3,11.71,11.71,0,0,0,1.19-.06,8.77,8.77,0,0,0,1,.06H63.22a8.43,8.43,0,0,0,1-.06c.4,0,.8.06,1.21.06a15.56,15.56,0,0,0,2.1-31Z"/><path d="M17.74,49.51l-3.08,4.62a3.7,3.7,0,0,0,.46,4.67h0a3.71,3.71,0,0,0,5.23,0h0a3.71,3.71,0,0,0,.47-4.67Z"/><path style="fill:#12c2ff;" d="M18.08,49.17,15,53.79a3.7,3.7,0,0,0,.46,4.67h0a3.71,3.71,0,0,0,5.23,0h0a3.71,3.71,0,0,0,.47-4.67Z"/>
  </symbol>

  <symbol id="icon-13" viewBox="0 0 79.47 76.85">
    <rect x="23.09" y="62.52" width="4.47" height="14.82" rx="2.24" transform="matrix(0.91, 0.42, -0.42, 0.91, 31.93, -4.15)"/><rect x="33.09" y="62.52" width="4.47" height="14.82" rx="2.24" transform="translate(32.86 -8.38) rotate(25)"/><rect x="43.09" y="62.52" width="4.47" height="14.82" rx="2.24" transform="translate(33.8 -12.6) rotate(25)"/><rect style="fill:#12c2ff;" x="24.09" y="61.52" width="4.47" height="14.82" rx="2.24" transform="translate(31.6 -4.67) rotate(25)"/><rect style="fill:#12c2ff;" x="34.09" y="61.52" width="4.47" height="14.82" rx="2.24" transform="translate(32.53 -8.9) rotate(25)"/><rect style="fill:#12c2ff;" x="44.09" y="61.52" width="4.47" height="14.82" rx="2.24" transform="translate(33.47 -13.12) rotate(25)"/><circle cx="49.08" cy="30.38" r="18.26"/><polygon points="45.43 8.47 52.73 8.47 49.08 1.17 45.43 8.47"/><polygon points="45.43 52.3 52.73 52.3 49.08 59.6 45.43 52.3"/><polygon points="70.99 26.73 70.99 34.04 78.3 30.38 70.99 26.73"/><polygon points="27.17 26.73 27.17 34.04 19.87 30.38 27.17 26.73"/><polygon points="29.75 16.22 34.92 11.05 27.17 8.47 29.75 16.22"/><polygon points="63.25 11.05 68.41 16.22 70.99 8.47 63.25 11.05"/><polygon points="63.25 49.71 68.41 44.55 70.99 52.3 63.25 49.71"/><polygon points="29.75 44.55 34.92 49.71 27.17 52.3 29.75 44.55"/><circle style="fill:#ffc107;" cx="50.25" cy="29.22" r="18.26"/><polygon style="fill:#ffc107;" points="46.6 7.3 53.9 7.3 50.25 0 46.6 7.3"/><polygon style="fill:#ffc107;" points="46.6 51.13 53.9 51.13 50.25 58.43 46.6 51.13"/><polygon style="fill:#ffc107;" points="72.16 25.56 72.16 32.87 79.47 29.22 72.16 25.56"/><polygon style="fill:#ffc107;" points="28.34 25.56 28.34 32.87 21.04 29.22 28.34 25.56"/><polygon style="fill:#ffc107;" points="30.92 15.05 36.09 9.89 28.34 7.3 30.92 15.05"/><polygon style="fill:#ffc107;" points="64.42 9.89 69.58 15.05 72.16 7.3 64.42 9.89"/><polygon style="fill:#ffc107;" points="64.42 48.55 69.58 43.38 72.16 51.13 64.42 48.55"/><polygon style="fill:#ffc107;" points="30.92 43.38 36.09 48.55 28.34 51.13 30.92 43.38"/><path style="fill:#b3b3b3;" d="M53,34.91a12.37,12.37,0,0,0-7.84,1.54,17.71,17.71,0,0,0-34.57,5.44v.17A9,9,0,0,0,7.78,42,8.86,8.86,0,0,0,8.86,59.6c.32,0,.63,0,.94-.05a7.55,7.55,0,0,0,.83.05h39a7,7,0,0,0,.8-.05c.32,0,.64.05,1,.05A12.4,12.4,0,0,0,53,34.91Z"/><path style="fill:#fff;" d="M53.84,34.11A12.36,12.36,0,0,0,46,35.66a17.71,17.71,0,0,0-34.57,5.43v.18a9.07,9.07,0,0,0-2.86-.12A8.86,8.86,0,0,0,9.65,58.8c.32,0,.64,0,.95,0a7.55,7.55,0,0,0,.83,0h39a7,7,0,0,0,.8,0c.32,0,.64,0,1,0a12.4,12.4,0,0,0,1.67-24.69Z"/>
  </symbol>

  <symbol id="icon-14" viewBox="0 0 81 61.44">
    <path style="fill:#b3b3b3;" d="M66.54,14.47a15.42,15.42,0,0,0-9.83,1.94,22.23,22.23,0,0,0-43.38,6.81c0,.08,0,.15,0,.23A11.09,11.09,0,0,0,.06,33.14a11.11,11.11,0,0,0,11,12.3,11.71,11.71,0,0,0,1.19-.06,8.77,8.77,0,0,0,1,.06H62.22a8.43,8.43,0,0,0,1-.06c.4,0,.8.06,1.21.06a15.56,15.56,0,0,0,2.1-31Z"/><path style="fill:#fff;" d="M67.54,13.47a15.42,15.42,0,0,0-9.83,1.94,22.23,22.23,0,0,0-43.38,6.81c0,.08,0,.15,0,.23A11.09,11.09,0,0,0,1.06,32.14a11.11,11.11,0,0,0,11,12.3,11.71,11.71,0,0,0,1.19-.06,8.77,8.77,0,0,0,1,.06H63.22a8.43,8.43,0,0,0,1-.06c.4,0,.8.06,1.21.06a15.56,15.56,0,0,0,2.1-31Z"/><polygon points="36.5 36.44 31.5 46.44 36.5 46.44 31.5 61.44 44 43.94 39 43.94 44 36.44 36.5 36.44"/><polygon style="fill:#ffc107;" points="37.5 35.44 32.5 45.44 37.5 45.44 32.5 60.44 45 42.94 40 42.94 45 35.44 37.5 35.44"/>
  </symbol>

  <symbol id="icon-15" viewBox="0 0 79.6 72.92">
    <circle cx="49.01" cy="30.59" r="18.38"/><polygon points="45.33 8.53 52.69 8.53 49.01 1.18 45.33 8.53"/><polygon points="45.33 52.65 52.69 52.65 49.01 60 45.33 52.65"/><polygon points="71.07 26.91 71.07 34.27 78.42 30.59 71.07 26.91"/><polygon points="26.95 26.91 26.95 34.27 19.6 30.59 26.95 26.91"/><polygon points="29.55 16.33 34.75 11.13 26.95 8.53 29.55 16.33"/><polygon points="63.27 11.13 68.47 16.33 71.07 8.53 63.27 11.13"/><polygon points="63.27 50.05 68.47 44.85 71.07 52.65 63.27 50.05"/><polygon points="29.55 44.85 34.75 50.05 26.95 52.65 29.55 44.85"/><circle style="fill:#ffc107;" cx="50.19" cy="29.41" r="18.38"/><polygon style="fill:#ffc107;" points="46.51 7.35 53.86 7.35 50.19 0 46.51 7.35"/><polygon style="fill:#ffc107;" points="46.51 51.47 53.86 51.47 50.19 58.82 46.51 51.47"/><polygon style="fill:#ffc107;" points="72.25 25.73 72.25 33.09 79.6 29.41 72.25 25.73"/><polygon style="fill:#ffc107;" points="28.13 25.73 28.13 33.09 20.77 29.41 28.13 25.73"/><polygon style="fill:#ffc107;" points="30.73 15.15 35.93 9.95 28.13 7.35 30.73 15.15"/><polygon style="fill:#ffc107;" points="64.45 9.95 69.65 15.15 72.25 7.35 64.45 9.95"/><polygon style="fill:#ffc107;" points="64.45 48.87 69.65 43.67 72.25 51.47 64.45 48.87"/><polygon style="fill:#ffc107;" points="30.73 43.67 35.93 48.87 28.13 51.47 30.73 43.67"/><path style="fill:#b3b3b3;" d="M53.4,35.23a12.37,12.37,0,0,0-7.89,1.55A17.83,17.83,0,0,0,10.7,42.25v.18a8.84,8.84,0,0,0-2.87-.12A8.92,8.92,0,0,0,8.92,60.08c.32,0,.64,0,.95,0a7.55,7.55,0,0,0,.83,0H49.93a7,7,0,0,0,.81,0c.32,0,.65,0,1,0A12.48,12.48,0,0,0,53.4,35.23Z"/><path style="fill:#fff;" d="M54.2,34.42A12.51,12.51,0,0,0,46.31,36,17.84,17.84,0,0,0,11.5,41.44c0,.07,0,.12,0,.18a9.2,9.2,0,0,0-2.88-.11A8.92,8.92,0,0,0,9.72,59.28c.32,0,.64,0,.95-.05a7.55,7.55,0,0,0,.83.05H50.73a7,7,0,0,0,.81-.05c.33,0,.65.05,1,.05A12.49,12.49,0,0,0,54.2,34.42Z"/><polygon points="29.29 52.86 25.28 60.88 29.29 60.88 25.28 72.92 35.31 58.88 31.3 58.88 35.31 52.86 29.29 52.86"/><polygon style="fill:#ffc107;" points="30.09 52.05 26.08 60.08 30.09 60.08 26.08 72.12 36.11 58.07 32.1 58.07 36.11 52.05 30.09 52.05"/>
  </symbol>

  <symbol id="icon-16" viewBox="0 0 81 57.99">
    <path style="fill:#b3b3b3;" d="M66.54,14.47a15.42,15.42,0,0,0-9.83,1.94,22.23,22.23,0,0,0-43.38,6.81c0,.08,0,.15,0,.23A11.09,11.09,0,0,0,.06,33.14a11.11,11.11,0,0,0,11,12.3,11.71,11.71,0,0,0,1.19-.06,8.77,8.77,0,0,0,1,.06H62.22a8.43,8.43,0,0,0,1-.06c.4,0,.8.06,1.21.06a15.56,15.56,0,0,0,2.1-31Z"/><path style="fill:#fff;" d="M67.54,13.47a15.42,15.42,0,0,0-9.83,1.94,22.23,22.23,0,0,0-43.38,6.81c0,.08,0,.15,0,.23A11.09,11.09,0,0,0,1.06,32.14a11.11,11.11,0,0,0,11,12.3,11.71,11.71,0,0,0,1.19-.06,8.77,8.77,0,0,0,1,.06H63.22a8.43,8.43,0,0,0,1-.06c.4,0,.8.06,1.21.06a15.56,15.56,0,0,0,2.1-31Z"/><circle cx="46.3" cy="55.16" r="2.8"/><circle style="fill:#fff;" cx="46.48" cy="54.97" r="2.8"/><circle cx="31.03" cy="51.56" r="2.53"/><circle style="fill:#fff;" cx="31.2" cy="51.39" r="2.53"/><circle cx="36.24" cy="57.07" r="0.92"/><circle style="fill:#fff;" cx="36.3" cy="57.01" r="0.92"/><circle cx="39.05" cy="49.58" r="0.92"/><circle style="fill:#fff;" cx="39.12" cy="49.51" r="0.92"/><circle cx="21.94" cy="52.81" r="0.92"/><circle style="fill:#fff;" cx="22" cy="52.75" r="0.92"/>
  </symbol>

  <symbol id="icon-17" viewBox="0 0 81 57.56">
    <circle cx="39.88" cy="54.73" r="2.8"/><circle style="fill:#fff;" cx="40.07" cy="54.54" r="2.8"/><circle cx="54.17" cy="51.84" r="2.53"/><circle style="fill:#fff;" cx="54.34" cy="51.67" r="2.53"/><circle cx="24.62" cy="51.12" r="2.53"/><circle style="fill:#fff;" cx="24.78" cy="50.95" r="2.53"/><circle cx="29.82" cy="56.64" r="0.92"/><circle style="fill:#fff;" cx="29.88" cy="56.58" r="0.92"/><circle cx="50.07" cy="56.31" r="0.92"/><circle style="fill:#fff;" cx="50.13" cy="56.25" r="0.92"/><circle cx="46.76" cy="49.17" r="0.92"/><circle style="fill:#fff;" cx="46.82" cy="49.11" r="0.92"/><circle cx="64.43" cy="51.42" r="0.92"/><circle style="fill:#fff;" cx="64.5" cy="51.36" r="0.92"/><circle cx="32.64" cy="49.14" r="0.92"/><circle style="fill:#fff;" cx="32.7" cy="49.08" r="0.92"/><circle cx="15.52" cy="52.38" r="0.92"/><circle style="fill:#fff;" cx="15.58" cy="52.31" r="0.92"/><path style="fill:#b3b3b3;" d="M66.54,14.47a15.42,15.42,0,0,0-9.83,1.94,22.23,22.23,0,0,0-43.38,6.81c0,.08,0,.15,0,.23A11.09,11.09,0,0,0,.06,33.14a11.11,11.11,0,0,0,11,12.3,11.71,11.71,0,0,0,1.19-.06,8.77,8.77,0,0,0,1,.06H62.22a8.43,8.43,0,0,0,1-.06c.4,0,.8.06,1.21.06a15.56,15.56,0,0,0,2.1-31Z"/><path style="fill:#fff;" d="M67.54,13.47a15.42,15.42,0,0,0-9.83,1.94,22.23,22.23,0,0,0-43.38,6.81c0,.08,0,.15,0,.23A11.09,11.09,0,0,0,1.06,32.14a11.11,11.11,0,0,0,11,12.3,11.71,11.71,0,0,0,1.19-.06,8.77,8.77,0,0,0,1,.06H63.22a8.43,8.43,0,0,0,1-.06c.4,0,.8.06,1.21.06a15.56,15.56,0,0,0,2.1-31Z"/>
  </symbol>

  <symbol id="icon-18" viewBox="0 0 81 57.51">
    <path style="fill:#b3b3b3;" d="M66.54,14.47a15.42,15.42,0,0,0-9.83,1.94,22.23,22.23,0,0,0-43.38,6.81c0,.08,0,.15,0,.23A11.09,11.09,0,0,0,.06,33.14a11.11,11.11,0,0,0,11,12.3,11.71,11.71,0,0,0,1.19-.06,8.77,8.77,0,0,0,1,.06H62.22a8.43,8.43,0,0,0,1-.06c.4,0,.8.06,1.21.06a15.56,15.56,0,0,0,2.1-31Z"/><path style="fill:#fff;" d="M67.54,13.47a15.42,15.42,0,0,0-9.83,1.94,22.23,22.23,0,0,0-43.38,6.81c0,.08,0,.15,0,.23A11.09,11.09,0,0,0,1.06,32.14a11.11,11.11,0,0,0,11,12.3,11.71,11.71,0,0,0,1.19-.06,8.77,8.77,0,0,0,1,.06H63.22a8.43,8.43,0,0,0,1-.06c.4,0,.8.06,1.21.06a15.56,15.56,0,0,0,2.1-31Z"/><circle cx="12.55" cy="51.58" r="2.33"/><circle style="fill:#fff;" cx="12.7" cy="51.42" r="2.33"/><circle cx="17.35" cy="56.66" r="0.85"/><circle style="fill:#fff;" cx="17.4" cy="56.61" r="0.85"/><circle cx="20.77" cy="49.1" r="0.92"/><circle style="fill:#fff;" cx="20.83" cy="49.03" r="0.92"/>
  </symbol>

  <symbol id="icon-19" viewBox="0 0 79.47 70.5">
    <circle cx="38.83" cy="67.67" r="2.8"/><circle style="fill:#fff;" cx="39.01" cy="67.48" r="2.8"/><circle cx="53.12" cy="64.78" r="2.53"/><circle style="fill:#fff;" cx="53.29" cy="64.61" r="2.53"/><circle cx="23.56" cy="64.06" r="2.53"/><circle style="fill:#fff;" cx="23.73" cy="63.9" r="2.53"/><circle cx="28.77" cy="69.58" r="0.92"/><circle style="fill:#fff;" cx="28.83" cy="69.52" r="0.92"/><circle cx="49.01" cy="69.25" r="0.92"/><circle style="fill:#fff;" cx="49.07" cy="69.19" r="0.92"/><circle cx="45.7" cy="62.11" r="0.92"/><circle style="fill:#fff;" cx="45.76" cy="62.05" r="0.92"/><circle cx="63.38" cy="64.36" r="0.92"/><circle style="fill:#fff;" cx="63.44" cy="64.3" r="0.92"/><circle cx="31.58" cy="62.08" r="0.92"/><circle style="fill:#fff;" cx="31.64" cy="62.02" r="0.92"/><circle cx="14.47" cy="65.32" r="0.92"/><circle style="fill:#fff;" cx="14.53" cy="65.25" r="0.92"/><circle cx="49.08" cy="30.38" r="18.26"/><polygon points="45.43 8.47 52.73 8.47 49.08 1.17 45.43 8.47"/><polygon points="45.43 52.3 52.73 52.3 49.08 59.6 45.43 52.3"/><polygon points="70.99 26.73 70.99 34.04 78.3 30.38 70.99 26.73"/><polygon points="27.17 26.73 27.17 34.04 19.87 30.38 27.17 26.73"/><polygon points="29.75 16.22 34.92 11.05 27.17 8.47 29.75 16.22"/><polygon points="63.25 11.05 68.41 16.22 70.99 8.47 63.25 11.05"/><polygon points="63.25 49.71 68.41 44.55 70.99 52.3 63.25 49.71"/><polygon points="29.75 44.55 34.92 49.71 27.17 52.3 29.75 44.55"/><circle style="fill:#ffc107;" cx="50.25" cy="29.22" r="18.26"/><polygon style="fill:#ffc107;" points="46.6 7.3 53.9 7.3 50.25 0 46.6 7.3"/><polygon style="fill:#ffc107;" points="46.6 51.13 53.9 51.13 50.25 58.43 46.6 51.13"/><polygon style="fill:#ffc107;" points="72.16 25.56 72.16 32.87 79.47 29.22 72.16 25.56"/><polygon style="fill:#ffc107;" points="28.34 25.56 28.34 32.87 21.04 29.22 28.34 25.56"/><polygon style="fill:#ffc107;" points="30.92 15.05 36.09 9.89 28.34 7.3 30.92 15.05"/><polygon style="fill:#ffc107;" points="64.42 9.89 69.58 15.05 72.16 7.3 64.42 9.89"/><polygon style="fill:#ffc107;" points="64.42 48.55 69.58 43.38 72.16 51.13 64.42 48.55"/><polygon style="fill:#ffc107;" points="30.92 43.38 36.09 48.55 28.34 51.13 30.92 43.38"/><path style="fill:#b3b3b3;" d="M53,34.91a12.37,12.37,0,0,0-7.84,1.54,17.71,17.71,0,0,0-34.57,5.44v.17A9,9,0,0,0,7.78,42,8.86,8.86,0,0,0,8.86,59.6c.32,0,.63,0,.94-.05a7.55,7.55,0,0,0,.83.05h39a7,7,0,0,0,.8-.05c.32,0,.64.05,1,.05A12.4,12.4,0,0,0,53,34.91Z"/><path style="fill:#fff;" d="M53.84,34.11A12.36,12.36,0,0,0,46,35.66a17.71,17.71,0,0,0-34.57,5.43v.18a9.07,9.07,0,0,0-2.86-.12A8.86,8.86,0,0,0,9.65,58.8c.32,0,.64,0,.95,0a7.55,7.55,0,0,0,.83,0h39a7,7,0,0,0,.8,0c.32,0,.64,0,1,0a12.4,12.4,0,0,0,1.67-24.69Z"/>
  </symbol>

  <symbol id="icon-20" viewBox="0 0 81 60.95">
    <rect x="42.17" y="47.66" width="4.15" height="13.75" rx="2.07" transform="translate(27.19 -13.59) rotate(25)"/><rect x="51.44" y="47.66" width="4.15" height="13.75" rx="2.07" transform="translate(28.06 -17.51) rotate(25)"/><rect x="60.71" y="47.66" width="4.15" height="13.75" rx="2.07" transform="translate(28.93 -21.43) rotate(25)"/><rect style="fill:#12c2ff;" x="43.09" y="46.73" width="4.15" height="13.75" rx="2.07" transform="translate(26.88 -14.07) rotate(25)"/><rect style="fill:#12c2ff;" x="52.37" y="46.73" width="4.15" height="13.75" rx="2.07" transform="translate(27.75 -17.99) rotate(25)"/><rect style="fill:#12c2ff;" x="61.64" y="46.73" width="4.15" height="13.75" rx="2.07" transform="translate(28.62 -21.91) rotate(25)"/><circle cx="27.66" cy="54.28" r="2.19"/><circle style="fill:#fff;" cx="27.81" cy="54.13" r="2.19"/><circle cx="38.82" cy="52.02" r="1.97"/><circle style="fill:#fff;" cx="38.95" cy="51.89" r="1.97"/><circle cx="15.74" cy="51.46" r="1.97"/><circle style="fill:#fff;" cx="15.88" cy="51.33" r="1.97"/><circle cx="19.81" cy="55.77" r="0.72"/><circle style="fill:#fff;" cx="19.86" cy="55.72" r="0.72"/><circle cx="35.61" cy="55.52" r="0.72"/><circle style="fill:#fff;" cx="35.66" cy="55.47" r="0.72"/><circle cx="33.03" cy="49.94" r="0.72"/><circle style="fill:#fff;" cx="33.08" cy="49.89" r="0.72"/><circle cx="46.83" cy="51.7" r="0.72"/><circle style="fill:#fff;" cx="46.88" cy="51.65" r="0.72"/><circle cx="22.01" cy="49.92" r="0.72"/><circle style="fill:#fff;" cx="22.06" cy="49.87" r="0.72"/><circle cx="8.64" cy="52.44" r="0.72"/><circle style="fill:#fff;" cx="8.69" cy="52.39" r="0.72"/><path style="fill:#b3b3b3;" d="M66.54,14.47a15.42,15.42,0,0,0-9.83,1.94,22.23,22.23,0,0,0-43.38,6.81c0,.08,0,.15,0,.23A11.09,11.09,0,0,0,.06,33.14a11.11,11.11,0,0,0,11,12.3,11.71,11.71,0,0,0,1.19-.06,8.77,8.77,0,0,0,1,.06H62.22a8.43,8.43,0,0,0,1-.06c.4,0,.8.06,1.21.06a15.56,15.56,0,0,0,2.1-31Z"/><path style="fill:#fff;" d="M67.54,13.47a15.42,15.42,0,0,0-9.83,1.94,22.23,22.23,0,0,0-43.38,6.81c0,.08,0,.15,0,.23A11.09,11.09,0,0,0,1.06,32.14a11.11,11.11,0,0,0,11,12.3,11.71,11.71,0,0,0,1.19-.06,8.77,8.77,0,0,0,1,.06H63.22a8.43,8.43,0,0,0,1-.06c.4,0,.8.06,1.21.06a15.56,15.56,0,0,0,2.1-31Z"/>
  </symbol>

  <symbol id="icon-21" viewBox="0 0 81 59.88">
    <path style="fill:#b3b3b3;" d="M66.54,14.47a15.42,15.42,0,0,0-9.83,1.94,22.23,22.23,0,0,0-43.38,6.81c0,.08,0,.15,0,.23A11.09,11.09,0,0,0,.06,33.14a11.11,11.11,0,0,0,11,12.3,11.71,11.71,0,0,0,1.19-.06,8.77,8.77,0,0,0,1,.06H62.22a8.43,8.43,0,0,0,1-.06c.4,0,.8.06,1.21.06a15.56,15.56,0,0,0,2.1-31Z"/><path style="fill:#fff;" d="M67.54,13.47a15.42,15.42,0,0,0-9.83,1.94,22.23,22.23,0,0,0-43.38,6.81c0,.08,0,.15,0,.23A11.09,11.09,0,0,0,1.06,32.14a11.11,11.11,0,0,0,11,12.3,11.71,11.71,0,0,0,1.19-.06,8.77,8.77,0,0,0,1,.06H63.22a8.43,8.43,0,0,0,1-.06c.4,0,.8.06,1.21.06a15.56,15.56,0,0,0,2.1-31Z"/><path d="M17.74,49.51l-3.08,4.62a3.7,3.7,0,0,0,.46,4.67h0a3.71,3.71,0,0,0,5.23,0h0a3.71,3.71,0,0,0,.47-4.67Z"/><path style="fill:#12c2ff;" d="M18.08,49.17,15,53.79a3.7,3.7,0,0,0,.46,4.67h0a3.71,3.71,0,0,0,5.23,0h0a3.71,3.71,0,0,0,.47-4.67Z"/><circle cx="26.11" cy="51.28" r="2.33"/><circle style="fill:#fff;" cx="26.27" cy="51.12" r="2.33"/><circle cx="30.91" cy="56.36" r="0.85"/><circle style="fill:#fff;" cx="30.97" cy="56.3" r="0.85"/><circle cx="34.33" cy="48.79" r="0.92"/><circle style="fill:#fff;" cx="34.39" cy="48.73" r="0.92"/>
  </symbol>

  <symbol id="icon-22" viewBox="0 0 79.47 74.5">
    <rect x="40.38" y="61.21" width="4.15" height="13.75" rx="2.07" transform="translate(32.75 -11.56) rotate(25)"/><rect x="49.66" y="61.21" width="4.15" height="13.75" rx="2.07" transform="translate(33.62 -15.48) rotate(25)"/><rect x="58.93" y="61.21" width="4.15" height="13.75" rx="2.07" transform="translate(34.49 -19.4) rotate(25)"/><rect style="fill:#12c2ff;" x="41.31" y="60.28" width="4.15" height="13.75" rx="2.07" transform="translate(32.44 -12.04) rotate(25)"/><rect style="fill:#12c2ff;" x="50.58" y="60.28" width="4.15" height="13.75" rx="2.07" transform="translate(33.31 -15.96) rotate(25)"/><rect style="fill:#12c2ff;" x="59.86" y="60.28" width="4.15" height="13.75" rx="2.07" transform="translate(34.18 -19.88) rotate(25)"/><circle cx="25.88" cy="67.83" r="2.19"/><circle style="fill:#fff;" cx="26.02" cy="67.68" r="2.19"/><circle cx="37.04" cy="65.57" r="1.97"/><circle style="fill:#fff;" cx="37.17" cy="65.44" r="1.97"/><circle cx="13.96" cy="65.01" r="1.97"/><circle style="fill:#fff;" cx="14.09" cy="64.88" r="1.97"/><circle cx="18.03" cy="69.32" r="0.72"/><circle style="fill:#fff;" cx="18.07" cy="69.27" r="0.72"/><circle cx="33.83" cy="69.07" r="0.72"/><circle style="fill:#fff;" cx="33.88" cy="69.02" r="0.72"/><circle cx="31.24" cy="63.49" r="0.72"/><circle style="fill:#fff;" cx="31.29" cy="63.44" r="0.72"/><circle cx="45.04" cy="65.25" r="0.72"/><circle style="fill:#fff;" cx="45.09" cy="65.2" r="0.72"/><circle cx="20.22" cy="63.47" r="0.72"/><circle style="fill:#fff;" cx="20.27" cy="63.42" r="0.72"/><circle cx="6.86" cy="65.99" r="0.72"/><circle style="fill:#fff;" cx="6.91" cy="65.94" r="0.72"/><circle cx="49.08" cy="30.38" r="18.26"/><polygon points="45.43 8.47 52.73 8.47 49.08 1.17 45.43 8.47"/><polygon points="45.43 52.3 52.73 52.3 49.08 59.6 45.43 52.3"/><polygon points="70.99 26.73 70.99 34.04 78.3 30.38 70.99 26.73"/><polygon points="27.17 26.73 27.17 34.04 19.87 30.38 27.17 26.73"/><polygon points="29.75 16.22 34.92 11.05 27.17 8.47 29.75 16.22"/><polygon points="63.25 11.05 68.41 16.22 70.99 8.47 63.25 11.05"/><polygon points="63.25 49.71 68.41 44.55 70.99 52.3 63.25 49.71"/><polygon points="29.75 44.55 34.92 49.71 27.17 52.3 29.75 44.55"/><circle style="fill:#ffc107;" cx="50.25" cy="29.22" r="18.26"/><polygon style="fill:#ffc107;" points="46.6 7.3 53.9 7.3 50.25 0 46.6 7.3"/><polygon style="fill:#ffc107;" points="46.6 51.13 53.9 51.13 50.25 58.43 46.6 51.13"/><polygon style="fill:#ffc107;" points="72.16 25.56 72.16 32.87 79.47 29.22 72.16 25.56"/><polygon style="fill:#ffc107;" points="28.34 25.56 28.34 32.87 21.04 29.22 28.34 25.56"/><polygon style="fill:#ffc107;" points="30.92 15.05 36.09 9.89 28.34 7.3 30.92 15.05"/><polygon style="fill:#ffc107;" points="64.42 9.89 69.58 15.05 72.16 7.3 64.42 9.89"/><polygon style="fill:#ffc107;" points="64.42 48.55 69.58 43.38 72.16 51.13 64.42 48.55"/><polygon style="fill:#ffc107;" points="30.92 43.38 36.09 48.55 28.34 51.13 30.92 43.38"/><path style="fill:#b3b3b3;" d="M53,34.91a12.37,12.37,0,0,0-7.84,1.54,17.71,17.71,0,0,0-34.57,5.44v.17A9,9,0,0,0,7.78,42,8.86,8.86,0,0,0,8.86,59.6c.32,0,.63,0,.94-.05a7.55,7.55,0,0,0,.83.05h39a7,7,0,0,0,.8-.05c.32,0,.64.05,1,.05A12.4,12.4,0,0,0,53,34.91Z"/><path style="fill:#fff;" d="M53.84,34.11A12.36,12.36,0,0,0,46,35.66a17.71,17.71,0,0,0-34.57,5.43v.18a9.07,9.07,0,0,0-2.86-.12A8.86,8.86,0,0,0,9.65,58.8c.32,0,.64,0,.95,0a7.55,7.55,0,0,0,.83,0h39a7,7,0,0,0,.8,0c.32,0,.64,0,1,0a12.4,12.4,0,0,0,1.67-24.69Z"/>
  </symbol>

  <symbol id="icon-23" viewBox="0 0 81 62.87">
    <path style="fill:#b3b3b3;" d="M66.54,14.47a15.42,15.42,0,0,0-9.83,1.94,22.23,22.23,0,0,0-43.38,6.81c0,.08,0,.15,0,.23A11.09,11.09,0,0,0,.06,33.14a11.11,11.11,0,0,0,11,12.3,11.71,11.71,0,0,0,1.19-.06,8.77,8.77,0,0,0,1,.06H62.22a8.43,8.43,0,0,0,1-.06c.4,0,.8.06,1.21.06a15.56,15.56,0,0,0,2.1-31Z"/><path style="fill:#fff;" d="M67.54,13.47a15.42,15.42,0,0,0-9.83,1.94,22.23,22.23,0,0,0-43.38,6.81c0,.08,0,.15,0,.23A11.09,11.09,0,0,0,1.06,32.14a11.11,11.11,0,0,0,11,12.3,11.71,11.71,0,0,0,1.19-.06,8.77,8.77,0,0,0,1,.06H63.22a8.43,8.43,0,0,0,1-.06c.4,0,.8.06,1.21.06a15.56,15.56,0,0,0,2.1-31Z"/><rect x="27.26" y="48.53" width="4.47" height="14.82" rx="2.24" transform="translate(26.41 -7.23) rotate(25)"/><rect x="37.26" y="48.53" width="4.47" height="14.82" rx="2.24" transform="translate(27.34 -11.45) rotate(25)"/><rect x="47.26" y="48.53" width="4.47" height="14.82" rx="2.24" transform="translate(28.28 -15.68) rotate(25)"/><rect style="fill:#12c2ff;" x="28.26" y="47.53" width="4.47" height="14.82" rx="2.24" transform="translate(26.08 -7.74) rotate(25)"/><rect style="fill:#12c2ff;" x="38.26" y="47.53" width="4.47" height="14.82" rx="2.24" transform="translate(27.02 -11.97) rotate(25)"/><rect style="fill:#12c2ff;" x="48.26" y="47.53" width="4.47" height="14.82" rx="2.24" transform="translate(27.95 -16.19) rotate(25)"/><rect x="16.76" y="55.33" width="6.25" height="0.62" rx="0.31"/><rect x="16.76" y="55.33" width="6.25" height="0.62" rx="0.31" transform="translate(-35.75 75.52) rotate(-90)"/><rect x="16.76" y="55.33" width="6.25" height="0.62" rx="0.31" transform="translate(-33.51 30.36) rotate(-45)"/><rect x="16.76" y="55.33" width="6.25" height="0.62" rx="0.31" transform="translate(45.16 2.23) rotate(45)"/><rect style="fill:#fff;" x="16.99" y="55.1" width="6.25" height="0.62" rx="0.31"/><rect style="fill:#fff;" x="16.99" y="55.1" width="6.25" height="0.62" rx="0.31" transform="translate(-35.3 75.52) rotate(-90)"/><rect style="fill:#fff;" x="16.99" y="55.1" width="6.25" height="0.62" rx="0.31" transform="translate(-33.29 30.45) rotate(-45)"/><rect style="fill:#fff;" x="16.99" y="55.1" width="6.25" height="0.62" rx="0.31" transform="translate(45.07 2.01) rotate(45)"/><rect x="57.26" y="55.44" width="6.25" height="0.62" rx="0.31"/><rect x="57.26" y="55.44" width="6.25" height="0.62" rx="0.31" transform="translate(4.64 116.13) rotate(-90)"/><rect x="57.26" y="55.44" width="6.25" height="0.62" rx="0.31" transform="translate(-21.73 59.03) rotate(-45)"/><rect x="57.26" y="55.44" width="6.25" height="0.62" rx="0.31" transform="translate(57.11 -26.37) rotate(45)"/><rect style="fill:#fff;" x="57.49" y="55.21" width="6.25" height="0.62" rx="0.31"/><rect style="fill:#fff;" x="57.49" y="55.21" width="6.25" height="0.62" rx="0.31" transform="translate(5.09 116.13) rotate(-90)"/><rect style="fill:#fff;" x="57.49" y="55.21" width="6.25" height="0.62" rx="0.31" transform="translate(-21.51 59.12) rotate(-45)"/><rect style="fill:#fff;" x="57.49" y="55.21" width="6.25" height="0.62" rx="0.31" transform="translate(57.01 -26.6) rotate(45)"/>
  </symbol>

  <symbol id="icon-24" viewBox="0 0 79.47 74.34">
    <circle cx="49.08" cy="30.38" r="18.26"/><polygon points="45.43 8.47 52.73 8.47 49.08 1.17 45.43 8.47"/><polygon points="45.43 52.3 52.73 52.3 49.08 59.6 45.43 52.3"/><polygon points="70.99 26.73 70.99 34.04 78.3 30.38 70.99 26.73"/><polygon points="27.17 26.73 27.17 34.04 19.87 30.38 27.17 26.73"/><polygon points="29.75 16.22 34.92 11.05 27.17 8.47 29.75 16.22"/><polygon points="63.25 11.05 68.41 16.22 70.99 8.47 63.25 11.05"/><polygon points="63.25 49.71 68.41 44.55 70.99 52.3 63.25 49.71"/><polygon points="29.75 44.55 34.92 49.71 27.17 52.3 29.75 44.55"/><circle style="fill:#ffc107;" cx="50.25" cy="29.22" r="18.26"/><polygon style="fill:#ffc107;" points="46.6 7.3 53.9 7.3 50.25 0 46.6 7.3"/><polygon style="fill:#ffc107;" points="46.6 51.13 53.9 51.13 50.25 58.43 46.6 51.13"/><polygon style="fill:#ffc107;" points="72.16 25.56 72.16 32.87 79.47 29.22 72.16 25.56"/><polygon style="fill:#ffc107;" points="28.34 25.56 28.34 32.87 21.04 29.22 28.34 25.56"/><polygon style="fill:#ffc107;" points="30.92 15.05 36.09 9.89 28.34 7.3 30.92 15.05"/><polygon style="fill:#ffc107;" points="64.42 9.89 69.58 15.05 72.16 7.3 64.42 9.89"/><polygon style="fill:#ffc107;" points="64.42 48.55 69.58 43.38 72.16 51.13 64.42 48.55"/><polygon style="fill:#ffc107;" points="30.92 43.38 36.09 48.55 28.34 51.13 30.92 43.38"/><path style="fill:#b3b3b3;" d="M53,34.91a12.37,12.37,0,0,0-7.84,1.54,17.71,17.71,0,0,0-34.57,5.44v.17A9,9,0,0,0,7.78,42,8.86,8.86,0,0,0,8.86,59.6c.32,0,.63,0,.94-.05a7.55,7.55,0,0,0,.83.05h39a7,7,0,0,0,.8-.05c.32,0,.64.05,1,.05A12.4,12.4,0,0,0,53,34.91Z"/><path style="fill:#fff;" d="M53.84,34.11A12.36,12.36,0,0,0,46,35.66a17.71,17.71,0,0,0-34.57,5.43v.18a9.07,9.07,0,0,0-2.86-.12A8.86,8.86,0,0,0,9.65,58.8c.32,0,.64,0,.95,0a7.55,7.55,0,0,0,.83,0h39a7,7,0,0,0,.8,0c.32,0,.64,0,1,0a12.4,12.4,0,0,0,1.67-24.69Z"/><rect x="9.86" y="62.29" width="4.47" height="9.75" rx="2.24" transform="translate(29.52 1.18) rotate(25)"/><rect style="fill:#12c2ff;" x="10.66" y="61.7" width="4.47" height="9.75" rx="2.24" transform="translate(29.35 0.79) rotate(25)"/><rect x="16.57" y="70.91" width="6.25" height="0.62" rx="0.31"/><rect x="16.57" y="70.91" width="6.25" height="0.62" rx="0.31" transform="translate(-51.52 90.92) rotate(-90)"/><rect x="16.57" y="70.91" width="6.25" height="0.62" rx="0.31" transform="translate(-44.59 34.79) rotate(-45)"/><rect x="16.57" y="70.91" width="6.25" height="0.62" rx="0.31" transform="translate(56.13 6.93) rotate(45)"/><rect style="fill:#fff;" x="16.79" y="70.69" width="6.25" height="0.62" rx="0.31"/><rect style="fill:#fff;" x="16.79" y="70.69" width="6.25" height="0.62" rx="0.31" transform="translate(-51.08 90.92) rotate(-90)"/><rect style="fill:#fff;" x="16.79" y="70.69" width="6.25" height="0.62" rx="0.31" transform="translate(-44.37 34.88) rotate(-45)"/><rect style="fill:#fff;" x="16.79" y="70.69" width="6.25" height="0.62" rx="0.31" transform="translate(56.04 6.71) rotate(45)"/>
  </symbol>

  <symbol id="icon-25" viewBox="0 0 81 59.84">
    <rect style="stroke:#000;" x="36.77" y="51.39" width="7.46" height="7.46" rx="2" transform="translate(-16.41 17.18) rotate(-20)"/><rect style="stroke:#000;" x="49.56" y="51.39" width="7.46" height="7.46" rx="2" transform="translate(-15.64 21.55) rotate(-20)"/><rect style="stroke:#000;" x="23.98" y="51.39" width="7.46" height="7.46" rx="2" transform="translate(-17.18 12.8) rotate(-20)"/><rect style="stroke:#fff;" x="36.77" y="51.04" width="7.46" height="7.46" rx="2" transform="translate(-16.29 17.15) rotate(-20)"/><rect style="stroke:#fff;" x="49.56" y="51.04" width="7.46" height="7.46" rx="2" transform="translate(-15.52 21.53) rotate(-20)"/><rect style="stroke:#fff;" x="23.98" y="51.04" width="7.46" height="7.46" rx="2" transform="translate(-17.06 12.78) rotate(-20)"/><path style="fill:#b3b3b3;" d="M66.54,14.47a15.42,15.42,0,0,0-9.83,1.94,22.23,22.23,0,0,0-43.38,6.81c0,.08,0,.15,0,.23A11.09,11.09,0,0,0,.06,33.14a11.11,11.11,0,0,0,11,12.3,11.71,11.71,0,0,0,1.19-.06,8.77,8.77,0,0,0,1,.06H62.22a8.43,8.43,0,0,0,1-.06c.4,0,.8.06,1.21.06a15.56,15.56,0,0,0,2.1-31Z"/><path style="fill:#fff;" d="M67.54,13.47a15.42,15.42,0,0,0-9.83,1.94,22.23,22.23,0,0,0-43.38,6.81c0,.08,0,.15,0,.23A11.09,11.09,0,0,0,1.06,32.14a11.11,11.11,0,0,0,11,12.3,11.71,11.71,0,0,0,1.19-.06,8.77,8.77,0,0,0,1,.06H63.22a8.43,8.43,0,0,0,1-.06c.4,0,.8.06,1.21.06a15.56,15.56,0,0,0,2.1-31Z"/>
  </symbol>

  <symbol id="icon-26" viewBox="0 0 47.74 47.96">
    <path d="M35,38A25,25,0,0,1,13,1,25,25,0,1,0,47,34.92,24.88,24.88,0,0,1,35,38Z"/><path style="fill:#ffc107;" d="M35.78,37a25,25,0,0,1-22-37A25,25,0,1,0,47.74,33.92,24.85,24.85,0,0,1,35.78,37Z"/>
  </symbol>

  <symbol id="icon-27" viewBox="0 0 55.55 49.57">
    <path d="M42.81,38a25,25,0,0,1-22-37A25,25,0,1,0,54.76,34.92,24.84,24.84,0,0,1,42.81,38Z"/><path style="fill:#ffc107;" d="M43.59,37a25,25,0,0,1-22-37A25,25,0,1,0,55.55,33.92,24.91,24.91,0,0,1,43.59,37Z"/><path style="fill:#b3b3b3;" d="M29.65,35.77a6.89,6.89,0,0,0-4.38.86,9.9,9.9,0,0,0-19.33,3v.1a4.95,4.95,0,1,0-1,9.8,4.58,4.58,0,0,0,.53,0,3.44,3.44,0,0,0,.46,0H27.72a3.4,3.4,0,0,0,.45,0l.54,0a6.93,6.93,0,0,0,.94-13.8Z"/><path style="fill:#fff;" d="M30.09,35.32a7,7,0,0,0-4.38.86,9.9,9.9,0,0,0-19.32,3v.1A5,5,0,0,0,.47,43.64,5,5,0,0,0,5.4,49.12a4.53,4.53,0,0,0,.52,0,3.71,3.71,0,0,0,.47,0H28.17l.45,0,.54,0a6.93,6.93,0,0,0,.93-13.8Z"/>
  </symbol>

  <symbol id="icon-28" viewBox="0 0 79.4 49.33">
    <path d="M68.22,33.31A21.94,21.94,0,0,1,49,.88,21.94,21.94,0,1,0,78.71,30.64,21.85,21.85,0,0,1,68.22,33.31Z"/><path style="fill:#ffc107;" d="M68.9,32.43A21.94,21.94,0,0,1,49.64,0,21.94,21.94,0,1,0,79.4,29.76,21.86,21.86,0,0,1,68.9,32.43Z"/><path style="fill:#b3b3b3;" d="M53.4,24.48A12.43,12.43,0,0,0,45.51,26,17.84,17.84,0,0,0,10.7,31.5v.18a8.85,8.85,0,0,0-2.87-.11A8.91,8.91,0,0,0,8.92,49.33c.32,0,.64,0,.95,0a7.55,7.55,0,0,0,.83,0H49.93a7,7,0,0,0,.81,0c.32,0,.65,0,1,0A12.48,12.48,0,0,0,53.4,24.48Z"/><path style="fill:#fff;" d="M54.2,23.68a12.38,12.38,0,0,0-7.89,1.55A17.84,17.84,0,0,0,11.5,30.7c0,.06,0,.12,0,.18A8.92,8.92,0,1,0,9.72,48.53c.32,0,.64,0,.95-.05a7.55,7.55,0,0,0,.83.05H50.73a7,7,0,0,0,.81-.05c.33,0,.65.05,1,.05A12.48,12.48,0,0,0,54.2,23.68Z"/>
  </symbol>

  <symbol id="icon-29" viewBox="0 0 75.71 55.74">
    <path d="M65.29,31A20.43,20.43,0,0,1,47.34.82,20.44,20.44,0,1,0,75.07,28.54,20.33,20.33,0,0,1,65.29,31Z"/><path style="fill:#ffc107;" d="M65.93,30.21A20.43,20.43,0,0,1,48,0,20.44,20.44,0,1,0,75.71,27.73,20.43,20.43,0,0,1,65.93,30.21Z"/><path style="fill:#b3b3b3;" d="M53.4,25.88a12.43,12.43,0,0,0-7.89,1.55A17.84,17.84,0,0,0,10.7,32.9v.18A9.13,9.13,0,0,0,7.83,33,8.92,8.92,0,0,0,8.92,50.74a7.46,7.46,0,0,0,.95-.06,7.54,7.54,0,0,0,.83.06H49.93a7,7,0,0,0,.81-.05c.32,0,.65.05,1,.05A12.49,12.49,0,0,0,53.4,25.88Z"/><path style="fill:#fff;" d="M54.2,25.08a12.45,12.45,0,0,0-7.89,1.55A17.84,17.84,0,0,0,11.5,32.1c0,.06,0,.12,0,.18A8.92,8.92,0,1,0,9.72,49.93c.32,0,.64,0,.95,0a7.55,7.55,0,0,0,.83,0H50.73a7,7,0,0,0,.81,0c.33,0,.65,0,1,0A12.48,12.48,0,0,0,54.2,25.08Z"/><path style="fill:#b3b3b3;" d="M37.8,39a8.31,8.31,0,0,1,5.29,1,12,12,0,0,1,23.38,3.68v.12a5.91,5.91,0,0,1,1.93-.08,6,6,0,0,1-.73,11.94c-.21,0-.43,0-.64,0a5.09,5.09,0,0,1-.56,0H40.12a4.9,4.9,0,0,1-.54,0c-.22,0-.44,0-.66,0A8.39,8.39,0,0,1,37.8,39Z"/><path style="fill:#e6e6e6;" d="M37.26,38.5a8.3,8.3,0,0,1,5.29,1,12,12,0,0,1,23.39,3.68s0,.08,0,.12a5.92,5.92,0,0,1,1.93-.08,6,6,0,0,1-.73,11.94c-.21,0-.43,0-.64,0a5.09,5.09,0,0,1-.55,0H39.58a4.9,4.9,0,0,1-.54,0c-.22,0-.43,0-.66,0a8.39,8.39,0,0,1-1.12-16.7Z"/>
  </symbol>

  <symbol id="icon-30" viewBox="0 0 73.66 62.85">
    <path d="M63.24,31A20.45,20.45,0,0,1,45.29.82,20.44,20.44,0,1,0,73,28.54,20.27,20.27,0,0,1,63.24,31Z"/><path style="fill:#ffc107;" d="M63.89,30.21A20.45,20.45,0,0,1,45.93,0,20.44,20.44,0,1,0,73.66,27.73,20.36,20.36,0,0,1,63.89,30.21Z"/><path style="fill:#b3b3b3;" d="M11.14,24a12,12,0,0,1,7.57,1.49,17.11,17.11,0,0,1,33.4,5.25v.17a8.75,8.75,0,0,1,2.76-.11,8.56,8.56,0,0,1-1,17.06c-.31,0-.62,0-.92-.05a6.87,6.87,0,0,1-.8.05H14.46a6.81,6.81,0,0,1-.78-.05c-.3,0-.61.05-.93.05A12,12,0,0,1,11.14,24Z"/><path style="fill:#e6e6e6;" d="M10.37,23.22a11.91,11.91,0,0,1,7.57,1.49A17.11,17.11,0,0,1,51.34,30v.17A8.75,8.75,0,0,1,54.1,30a8.56,8.56,0,0,1-1,17.06c-.31,0-.62,0-.92,0a7,7,0,0,1-.8,0H13.69a6.81,6.81,0,0,1-.78,0c-.3,0-.61,0-.93,0a12,12,0,0,1-1.61-23.86Z"/><path style="fill:#b3b3b3;" d="M53.4,33a12.43,12.43,0,0,0-7.89,1.55A17.84,17.84,0,0,0,10.7,40v.18a9.13,9.13,0,0,0-2.87-.11A8.92,8.92,0,0,0,8.92,57.85a7.46,7.46,0,0,0,.95-.06,5.69,5.69,0,0,0,.83.06H49.93a7,7,0,0,0,.81-.05c.32,0,.65.05,1,.05A12.49,12.49,0,0,0,53.4,33Z"/><path style="fill:#fff;" d="M54.2,32.19a12.45,12.45,0,0,0-7.89,1.55A17.84,17.84,0,0,0,11.5,39.21c0,.06,0,.12,0,.18A8.92,8.92,0,1,0,9.72,57c.32,0,.64,0,.95,0a7.55,7.55,0,0,0,.83,0H50.73a7,7,0,0,0,.81,0c.33,0,.65,0,1,0A12.48,12.48,0,0,0,54.2,32.19Z"/><path style="fill:#b3b3b3;" d="M37.8,46.15a8.31,8.31,0,0,1,5.29,1,12,12,0,0,1,23.38,3.68V51a5.91,5.91,0,0,1,1.93-.08,6,6,0,0,1-.73,11.94c-.21,0-.43,0-.64,0a5.09,5.09,0,0,1-.56,0H40.12a4.9,4.9,0,0,1-.54,0c-.22,0-.44,0-.66,0a8.39,8.39,0,0,1-1.12-16.7Z"/><path style="fill:#e6e6e6;" d="M37.26,45.61a8.36,8.36,0,0,1,5.29,1,12,12,0,0,1,23.39,3.68s0,.08,0,.12a5.92,5.92,0,0,1,1.93-.08,6,6,0,0,1-.73,11.94c-.21,0-.43,0-.64,0a5.09,5.09,0,0,1-.55,0H39.58a4.9,4.9,0,0,1-.54,0c-.22,0-.43,0-.66,0a8.39,8.39,0,0,1-1.12-16.7Z"/>
  </symbol>

  <symbol id="icon-31" viewBox="0 0 80 54.3">
    <path style="fill:#b3b3b3;" d="M12.1,12.11a13,13,0,0,1,8.22,1.61,18.59,18.59,0,0,1,36.28,5.7,1.15,1.15,0,0,1,0,.19,9.67,9.67,0,0,1,3-.12A9.29,9.29,0,0,1,58.46,38c-.34,0-.67,0-1,0a8.46,8.46,0,0,1-.87,0H15.71a7.92,7.92,0,0,1-.85,0c-.33,0-.67,0-1,0a13,13,0,0,1-1.75-25.9Z"/><path style="fill:#e6e6e6;" d="M11.26,11.27a12.9,12.9,0,0,1,8.22,1.62,18.59,18.59,0,0,1,36.28,5.7v.19a9.07,9.07,0,0,1,3-.12,9.3,9.3,0,0,1-1.14,18.52,8.22,8.22,0,0,1-1-.06,8.29,8.29,0,0,1-.87.06H14.87a5.73,5.73,0,0,1-.84-.06c-.34,0-.68.06-1,.06a13,13,0,0,1-1.75-25.91Z"/><path style="fill:#b3b3b3;" d="M58,21.88a13.51,13.51,0,0,0-8.57,1.68,19.37,19.37,0,0,0-37.8,6,1.21,1.21,0,0,0,0,.19,9.89,9.89,0,0,0-3.13-.12A9.68,9.68,0,0,0,9.68,48.87c.35,0,.7,0,1,0a8.72,8.72,0,0,0,.9,0H54.23a8.49,8.49,0,0,0,.88,0c.35,0,.7,0,1.06,0a13.56,13.56,0,0,0,1.82-27Z"/><path style="fill:#fff;" d="M58.86,21a13.51,13.51,0,0,0-8.57,1.68,19.37,19.37,0,0,0-37.8,5.94c0,.07,0,.13,0,.2a10.18,10.18,0,0,0-3.13-.13A9.69,9.69,0,0,0,10.56,48a8.89,8.89,0,0,0,1-.06,6.8,6.8,0,0,0,.9.06H55.1A8.49,8.49,0,0,0,56,48c.35,0,.7,0,1.06,0a13.56,13.56,0,0,0,1.82-27Z"/><path style="fill:#b3b3b3;" d="M41.05,36.17A9.08,9.08,0,0,1,46.8,37.3a13,13,0,0,1,25.39,4v.13a6.67,6.67,0,0,1,2.1-.08,6.5,6.5,0,0,1-.79,13,5.37,5.37,0,0,1-.7,0,4.08,4.08,0,0,1-.61,0H43.57a5.83,5.83,0,0,1-.59,0c-.23,0-.47,0-.71,0a9.11,9.11,0,0,1-1.22-18.13Z"/><path style="fill:#e6e6e6;" d="M40.46,35.59a9,9,0,0,1,5.76,1.13,13,13,0,0,1,25.39,4v.13a6.32,6.32,0,0,1,2.09-.08,6.5,6.5,0,0,1-.79,13c-.23,0-.47,0-.7,0a5.85,5.85,0,0,1-.6,0H43a5.65,5.65,0,0,1-.59,0c-.24,0-.47,0-.71,0a9.11,9.11,0,0,1-1.23-18.13Z"/>
  </symbol>

  <symbol id="icon-32" viewBox="0 0 79.4 68.51">
    <path d="M68.22,33.31A21.94,21.94,0,0,1,49,.88,21.94,21.94,0,1,0,78.71,30.64,21.85,21.85,0,0,1,68.22,33.31Z"/><path style="fill:#ffc107;" d="M68.9,32.43A21.94,21.94,0,0,1,49.64,0,21.94,21.94,0,1,0,79.4,29.76,21.86,21.86,0,0,1,68.9,32.43Z"/><path style="fill:#b3b3b3;" d="M53.4,24.48A12.43,12.43,0,0,0,45.51,26,17.84,17.84,0,0,0,10.7,31.5v.18a8.85,8.85,0,0,0-2.87-.11A8.91,8.91,0,0,0,8.92,49.33c.32,0,.64,0,.95,0a7.55,7.55,0,0,0,.83,0H49.93a7,7,0,0,0,.81,0c.32,0,.65,0,1,0A12.48,12.48,0,0,0,53.4,24.48Z"/><path style="fill:#fff;" d="M54.2,23.68a12.38,12.38,0,0,0-7.89,1.55A17.84,17.84,0,0,0,11.5,30.7c0,.06,0,.12,0,.18A8.92,8.92,0,1,0,9.72,48.53c.32,0,.64,0,.95-.05a7.55,7.55,0,0,0,.83.05H50.73a7,7,0,0,0,.81-.05c.33,0,.65.05,1,.05A12.48,12.48,0,0,0,54.2,23.68Z"/><rect x="22.23" y="54.17" width="4.47" height="14.82" rx="2.24" transform="translate(28.32 -4.57) rotate(25)"/><rect x="32.23" y="54.17" width="4.47" height="14.82" rx="2.24" transform="translate(29.25 -8.8) rotate(25)"/><rect x="42.23" y="54.17" width="4.47" height="14.82" rx="2.24" transform="translate(30.19 -13.02) rotate(25)"/><rect style="fill:#12c2ff;" x="23.23" y="53.17" width="4.47" height="14.82" rx="2.24" transform="translate(27.99 -5.09) rotate(25)"/><rect style="fill:#12c2ff;" x="33.23" y="53.17" width="4.47" height="14.82" rx="2.24" transform="translate(28.93 -9.31) rotate(25)"/><rect style="fill:#12c2ff;" x="43.23" y="53.17" width="4.47" height="14.82" rx="2.24" transform="translate(29.86 -13.54) rotate(25)"/>
  </symbol>

  <symbol id="icon-33" viewBox="0 0 79.4 62.59">
    <path d="M68.22,33.31A21.94,21.94,0,0,1,49,.88,21.94,21.94,0,1,0,78.71,30.64,21.85,21.85,0,0,1,68.22,33.31Z"/><path style="fill:#ffc107;" d="M68.9,32.43A21.94,21.94,0,0,1,49.64,0,21.94,21.94,0,1,0,79.4,29.76,21.86,21.86,0,0,1,68.9,32.43Z"/><path style="fill:#b3b3b3;" d="M53.4,24.48A12.43,12.43,0,0,0,45.51,26,17.84,17.84,0,0,0,10.7,31.5v.18a8.85,8.85,0,0,0-2.87-.11A8.91,8.91,0,0,0,8.92,49.33c.32,0,.64,0,.95,0a7.55,7.55,0,0,0,.83,0H49.93a7,7,0,0,0,.81,0c.32,0,.65,0,1,0A12.48,12.48,0,0,0,53.4,24.48Z"/><path style="fill:#fff;" d="M54.2,23.68a12.38,12.38,0,0,0-7.89,1.55A17.84,17.84,0,0,0,11.5,30.7c0,.06,0,.12,0,.18A8.92,8.92,0,1,0,9.72,48.53c.32,0,.64,0,.95-.05a7.55,7.55,0,0,0,.83.05H50.73a7,7,0,0,0,.81-.05c.33,0,.65.05,1,.05A12.48,12.48,0,0,0,54.2,23.68Z"/><polygon points="29.39 42.52 25.38 50.55 29.39 50.55 25.38 62.59 35.41 48.54 31.4 48.54 35.41 42.52 29.39 42.52"/><polygon style="fill:#ffc107;" points="30.19 41.72 26.18 49.75 30.19 49.75 26.18 61.78 36.21 47.74 32.2 47.74 36.21 41.72 30.19 41.72"/>
  </symbol>

  <symbol id="icon-34" viewBox="0 0 79.4 60.35">
    <circle cx="38.77" cy="57.51" r="2.8"/><circle style="fill:#fff;" cx="38.95" cy="57.33" r="2.8"/><circle cx="53.06" cy="54.62" r="2.53"/><circle style="fill:#fff;" cx="53.23" cy="54.45" r="2.53"/><circle cx="23.5" cy="53.91" r="2.53"/><circle style="fill:#fff;" cx="23.67" cy="53.74" r="2.53"/><circle cx="28.71" cy="59.42" r="0.92"/><circle style="fill:#fff;" cx="28.77" cy="59.36" r="0.92"/><circle cx="48.95" cy="59.1" r="0.92"/><circle style="fill:#fff;" cx="49.01" cy="59.04" r="0.92"/><circle cx="45.64" cy="51.96" r="0.92"/><circle style="fill:#fff;" cx="45.7" cy="51.9" r="0.92"/><circle cx="63.32" cy="54.21" r="0.92"/><circle style="fill:#fff;" cx="63.38" cy="54.15" r="0.92"/><circle cx="31.52" cy="51.93" r="0.92"/><circle style="fill:#fff;" cx="31.58" cy="51.87" r="0.92"/><circle cx="14.4" cy="55.16" r="0.92"/><circle style="fill:#fff;" cx="14.47" cy="55.1" r="0.92"/><path d="M68.22,33.31A21.94,21.94,0,0,1,49,.88,21.94,21.94,0,1,0,78.71,30.64,21.85,21.85,0,0,1,68.22,33.31Z"/><path style="fill:#ffc107;" d="M68.9,32.43A21.94,21.94,0,0,1,49.64,0,21.94,21.94,0,1,0,79.4,29.76,21.86,21.86,0,0,1,68.9,32.43Z"/><path style="fill:#b3b3b3;" d="M53.4,24.48A12.43,12.43,0,0,0,45.51,26,17.84,17.84,0,0,0,10.7,31.5v.18a8.85,8.85,0,0,0-2.87-.11A8.91,8.91,0,0,0,8.92,49.33c.32,0,.64,0,.95,0a7.55,7.55,0,0,0,.83,0H49.93a7,7,0,0,0,.81,0c.32,0,.65,0,1,0A12.48,12.48,0,0,0,53.4,24.48Z"/><path style="fill:#fff;" d="M54.2,23.68a12.38,12.38,0,0,0-7.89,1.55A17.84,17.84,0,0,0,11.5,30.7c0,.06,0,.12,0,.18A8.92,8.92,0,1,0,9.72,48.53c.32,0,.64,0,.95-.05a7.55,7.55,0,0,0,.83.05H50.73a7,7,0,0,0,.81-.05c.33,0,.65.05,1,.05A12.48,12.48,0,0,0,54.2,23.68Z"/>
  </symbol>

  <symbol id="icon-35" viewBox="0 0 79.4 65.21">
    <path d="M68.22,33.31A21.94,21.94,0,0,1,49,.88,21.94,21.94,0,1,0,78.71,30.64,21.85,21.85,0,0,1,68.22,33.31Z"/><path style="fill:#ffc107;" d="M68.9,32.43A21.94,21.94,0,0,1,49.64,0,21.94,21.94,0,1,0,79.4,29.76,21.86,21.86,0,0,1,68.9,32.43Z"/><path style="fill:#b3b3b3;" d="M53.4,24.48A12.43,12.43,0,0,0,45.51,26,17.84,17.84,0,0,0,10.7,31.5v.18a8.85,8.85,0,0,0-2.87-.11A8.91,8.91,0,0,0,8.92,49.33c.32,0,.64,0,.95,0a7.55,7.55,0,0,0,.83,0H49.93a7,7,0,0,0,.81,0c.32,0,.65,0,1,0A12.48,12.48,0,0,0,53.4,24.48Z"/><path style="fill:#fff;" d="M54.2,23.68a12.38,12.38,0,0,0-7.89,1.55A17.84,17.84,0,0,0,11.5,30.7c0,.06,0,.12,0,.18A8.92,8.92,0,1,0,9.72,48.53c.32,0,.64,0,.95-.05a7.55,7.55,0,0,0,.83.05H50.73a7,7,0,0,0,.81-.05c.33,0,.65.05,1,.05A12.48,12.48,0,0,0,54.2,23.68Z"/><rect x="40.68" y="51.91" width="4.15" height="13.75" rx="2.07" transform="translate(28.85 -12.56) rotate(25)"/><rect x="49.95" y="51.91" width="4.15" height="13.75" rx="2.07" transform="translate(29.72 -16.48) rotate(25)"/><rect x="59.22" y="51.91" width="4.15" height="13.75" rx="2.07" transform="translate(30.59 -20.4) rotate(25)"/><rect style="fill:#12c2ff;" x="41.6" y="50.98" width="4.15" height="13.75" rx="2.07" transform="translate(28.54 -13.04) rotate(25)"/><rect style="fill:#12c2ff;" x="50.88" y="50.98" width="4.15" height="13.75" rx="2.07" transform="translate(29.41 -16.96) rotate(25)"/><rect style="fill:#12c2ff;" x="60.15" y="50.98" width="4.15" height="13.75" rx="2.07" transform="translate(30.28 -20.88) rotate(25)"/><circle cx="26.17" cy="58.53" r="2.19"/><circle style="fill:#fff;" cx="26.32" cy="58.39" r="2.19"/><circle cx="37.33" cy="56.27" r="1.97"/><circle style="fill:#fff;" cx="37.46" cy="56.14" r="1.97"/><circle cx="14.25" cy="55.72" r="1.97"/><circle style="fill:#fff;" cx="14.39" cy="55.59" r="1.97"/><circle cx="18.32" cy="60.02" r="0.72"/><circle style="fill:#fff;" cx="18.37" cy="59.97" r="0.72"/><circle cx="34.12" cy="59.77" r="0.72"/><circle style="fill:#fff;" cx="34.17" cy="59.72" r="0.72"/><circle cx="31.54" cy="54.19" r="0.72"/><circle style="fill:#fff;" cx="31.59" cy="54.15" r="0.72"/><circle cx="45.34" cy="55.95" r="0.72"/><circle style="fill:#fff;" cx="45.39" cy="55.9" r="0.72"/><circle cx="20.52" cy="54.17" r="0.72"/><circle style="fill:#fff;" cx="20.57" cy="54.12" r="0.72"/><circle cx="7.15" cy="56.69" r="0.72"/><circle style="fill:#fff;" cx="7.2" cy="56.65" r="0.72"/>
  </symbol>

  <symbol id="icon-36" viewBox="0 0 79.4 63.98">
    <path d="M68.22,33.31A21.94,21.94,0,0,1,49,.88,21.94,21.94,0,1,0,78.71,30.64,21.85,21.85,0,0,1,68.22,33.31Z"/><path style="fill:#ffc107;" d="M68.9,32.43A21.94,21.94,0,0,1,49.64,0,21.94,21.94,0,1,0,79.4,29.76,21.86,21.86,0,0,1,68.9,32.43Z"/><path style="fill:#b3b3b3;" d="M53.4,24.48A12.43,12.43,0,0,0,45.51,26,17.84,17.84,0,0,0,10.7,31.5v.18a8.85,8.85,0,0,0-2.87-.11A8.91,8.91,0,0,0,8.92,49.33c.32,0,.64,0,.95,0a7.55,7.55,0,0,0,.83,0H49.93a7,7,0,0,0,.81,0c.32,0,.65,0,1,0A12.48,12.48,0,0,0,53.4,24.48Z"/><path style="fill:#fff;" d="M54.2,23.68a12.38,12.38,0,0,0-7.89,1.55A17.84,17.84,0,0,0,11.5,30.7c0,.06,0,.12,0,.18A8.92,8.92,0,1,0,9.72,48.53c.32,0,.64,0,.95-.05a7.55,7.55,0,0,0,.83.05H50.73a7,7,0,0,0,.81-.05c.33,0,.65.05,1,.05A12.48,12.48,0,0,0,54.2,23.68Z"/><rect x="10.01" y="51.92" width="4.47" height="9.75" rx="2.24" transform="translate(25.15 0.15) rotate(25)"/><rect style="fill:#12c2ff;" x="10.82" y="51.33" width="4.47" height="9.75" rx="2.24" transform="translate(24.98 -0.25) rotate(25)"/><rect x="16.72" y="60.54" width="6.25" height="0.62" rx="0.31"/><rect x="16.72" y="60.54" width="6.25" height="0.62" rx="0.31" transform="translate(-41 80.7) rotate(-90)"/><rect x="16.72" y="60.54" width="6.25" height="0.62" rx="0.31" transform="translate(-37.21 31.86) rotate(-45)"/><rect x="16.72" y="60.54" width="6.25" height="0.62" rx="0.31" transform="translate(48.84 3.79) rotate(45)"/><rect style="fill:#fff;" x="16.95" y="60.32" width="6.25" height="0.62" rx="0.31"/><rect style="fill:#fff;" x="16.95" y="60.32" width="6.25" height="0.62" rx="0.31" transform="translate(-40.56 80.7) rotate(-90)"/><rect style="fill:#fff;" x="16.95" y="60.32" width="6.25" height="0.62" rx="0.31" transform="translate(-36.99 31.95) rotate(-45)"/><rect style="fill:#fff;" x="16.95" y="60.32" width="6.25" height="0.62" rx="0.31" transform="translate(48.75 3.56) rotate(45)"/>
  </symbol>
</svg>
